<svg width="128" height="28" viewBox="0 0 128 28" fill="none" xmlns="http://www.w3.org/2000/svg">
<path d="M26.2218 3.38695C23.8947 1.04289 21.9123 1.04289 19.5852 3.38695L5.62256 17.4513L7.60491 19.448C9.93203 21.7921 11.9144 21.7921 14.2415 19.448L28.2042 5.38373L26.2218 3.38695Z" fill="#05AA76"/>
<path d="M29.54 6.72925L21.9123 14.4559C20.1023 16.2791 20.1023 18.6665 21.5675 20.1424C23.0327 21.6183 25.403 21.6617 27.2129 19.7952L31.5224 15.4543C33.8495 13.1103 33.8495 11.0701 31.5224 8.72603L29.54 6.72925Z" fill="#05AA76"/>
<path d="M12.2592 2.73582C10.794 1.25994 8.46686 1.21653 6.61379 3.03968L2.30432 7.38052C0.0203042 9.72457 0.0203042 11.7648 2.30432 14.1088L4.28668 16.1056L11.9144 8.42232C13.7675 6.55576 13.7244 4.21171 12.2592 2.73582Z" fill="#05AA76"/>
<path d="M67.3771 6.72942H62.7659L57.5515 11.8516V0.782471H53.8022V21.5751H57.5515V16.4095L59.3184 14.6297L63.714 21.5751H67.9373L61.9471 12.0686L67.3771 6.72942Z" fill="#05AA76"/>
<path d="M82.0297 6.72925H78.2373V14.6296C78.2373 15.8016 77.8926 16.8 77.2461 17.6247C76.5566 18.4061 75.7378 18.8402 74.6605 18.8402C73.7986 18.8402 73.1522 18.5363 72.7643 17.9286C72.3334 17.3209 72.161 16.4093 72.161 15.1505V6.72925H68.3687V15.1071C68.3687 17.3209 68.7996 19.0138 69.6615 20.1424C70.5234 21.271 71.8162 21.8788 73.4969 21.8788C74.6174 21.8788 75.6086 21.6183 76.4704 21.0974C77.3323 20.5765 77.9788 19.882 78.3235 18.9704H78.3666C78.3666 19.8386 78.4959 20.7067 78.6252 21.5749H82.202C82.0296 20.0556 81.9866 18.7968 81.9866 17.7984V6.72925H82.0297Z" fill="#05AA76"/>
<path d="M92.5015 6.42554C91.5534 6.42554 90.6484 6.64258 89.8727 7.03325C89.097 7.42393 88.4506 7.98824 87.9765 8.68277H87.9334C87.9334 7.98824 87.8903 7.33711 87.8472 6.7294H84.3135C84.3997 7.7712 84.4428 9.07345 84.4428 10.6796V27.522H88.2351V20.0558H88.3213C88.666 20.6201 89.2263 21.0542 89.9589 21.4014C90.6915 21.7053 91.5103 21.8789 92.4584 21.8789C94.3976 21.8789 95.9059 21.1844 96.9833 19.8387C98.0607 18.4931 98.6209 16.5831 98.6209 14.1956C98.6209 11.8082 98.0607 9.89821 96.9833 8.50914C95.8629 7.12007 94.3545 6.42554 92.5015 6.42554ZM93.9667 17.7551C93.4065 18.6233 92.6307 19.0574 91.5965 19.0574C90.6484 19.0574 89.8296 18.7535 89.1832 18.1024C88.5368 17.4513 88.192 16.6699 88.192 15.7149V12.6763C88.192 11.6779 88.4937 10.8966 89.1401 10.2889C89.7865 9.68116 90.6053 9.37731 91.6396 9.37731C93.7512 9.37731 94.7855 10.94 94.7855 14.1088C94.7855 15.6281 94.4838 16.887 93.9667 17.7551Z" fill="#05AA76"/>
<path d="M107.671 6.25195C105.3 6.25195 103.447 6.94649 102.111 8.29215C100.775 9.63781 100.086 11.5478 100.086 13.9786C100.086 16.4095 100.732 18.2761 102.111 19.6651C103.447 21.0108 105.3 21.7053 107.671 21.7053C110.041 21.7053 111.894 21.0108 113.273 19.6651C114.609 18.3195 115.298 16.4095 115.298 13.9786C115.298 11.5478 114.609 9.68121 113.273 8.29215C111.937 6.94649 110.041 6.25195 107.671 6.25195ZM110.515 17.5815C109.825 18.4497 108.877 18.8838 107.671 18.8838C106.464 18.8838 105.516 18.4497 104.869 17.5815C104.18 16.7134 103.835 15.4979 103.835 13.9786C103.835 12.4593 104.18 11.2439 104.869 10.3757C105.559 9.50758 106.464 9.0735 107.671 9.0735C108.877 9.0735 109.825 9.50758 110.515 10.3757C111.204 11.2439 111.549 12.4593 111.549 13.9786C111.549 15.4979 111.204 16.7134 110.515 17.5815Z" fill="#05AA76"/>
<path d="M50.1391 11.3306C49.4065 10.7228 48.4153 10.1585 47.1655 9.55081C46.6915 9.33377 46.2605 9.11673 45.8727 8.89969C45.2263 8.55242 44.666 8.29197 44.2782 8.03152C43.6318 7.64085 43.2008 7.29358 42.9423 6.98972C42.6837 6.68586 42.5544 6.3386 42.5544 5.90451C42.5544 5.25339 42.813 4.73249 43.287 4.38522C43.7611 4.03795 44.4937 3.86432 45.3987 3.86432C46.8208 3.86432 48.0274 4.47204 49.0186 5.68747L51.4319 3.2566C50.9148 2.43184 50.1391 1.78072 49.1479 1.30323C47.9843 0.738917 46.6915 0.435059 45.1832 0.435059C43.8472 0.435059 42.6406 0.6521 41.6063 1.12959C40.5721 1.56368 39.7533 2.2148 39.193 3.03956C38.6328 3.86432 38.3311 4.8193 38.3311 5.90451C38.3311 6.9029 38.5466 7.77107 38.9345 8.50901C39.3223 9.24696 39.9687 9.94149 40.7875 10.5926C41.3478 10.9833 42.0373 11.4174 42.813 11.8949C43.2439 12.1553 43.718 12.3724 44.2351 12.6328C45.3556 13.1971 46.1744 13.6312 46.6484 13.9351C47.1224 14.2823 47.4672 14.5862 47.6396 14.89C47.812 15.1939 47.8981 15.628 47.8981 16.1055C47.8981 16.8 47.6396 17.3209 47.0793 17.755C46.5191 18.1891 45.7865 18.3627 44.8815 18.3627C44.0627 18.3627 43.2008 18.1023 42.2958 17.6248C41.3909 17.1473 40.5721 16.4962 39.9256 15.7148L37.4692 18.1023C38.2449 19.2743 39.2792 20.1859 40.529 20.837C41.7787 21.4881 43.1577 21.792 44.7091 21.792C46.1744 21.792 47.4672 21.5315 48.5877 21.054C49.7081 20.5765 50.57 19.882 51.1302 18.9704C51.7336 18.0589 52.0352 17.0171 52.0352 15.845C52.0352 14.8466 51.8629 13.9785 51.5612 13.2405C51.3457 12.5894 50.8286 11.8949 50.1391 11.3306Z" fill="#05AA76"/>
<path d="M127.193 15.2371C126.934 14.7162 126.46 14.2822 125.857 13.8481C125.253 13.4574 124.391 13.0233 123.314 12.5892C123.271 12.5458 123.185 12.5458 123.142 12.5024C123.099 12.5024 123.056 12.459 123.012 12.459C122.926 12.4156 122.84 12.3722 122.711 12.3288C122.625 12.2854 122.538 12.242 122.452 12.242C122.366 12.1986 122.28 12.1551 122.237 12.1551C122.237 12.1551 122.237 12.1551 122.194 12.1551C122.107 12.1117 122.064 12.1117 121.978 12.0683H121.935C121.892 12.0249 121.806 12.0249 121.763 11.9815C121.72 11.9815 121.72 11.9815 121.677 11.9381C121.633 11.9381 121.59 11.8947 121.547 11.8947C121.504 11.8947 121.504 11.8513 121.461 11.8513C121.418 11.8513 121.418 11.8079 121.375 11.8079C121.332 11.7645 121.289 11.7645 121.202 11.7211C120.815 11.504 120.556 11.3304 120.427 11.1568C120.297 10.9831 120.211 10.7661 120.211 10.4622C120.211 10.0715 120.384 9.76769 120.685 9.55065C121.03 9.3336 121.461 9.24679 122.064 9.24679C123.228 9.24679 124.176 9.68087 124.866 10.5056L126.805 8.55225C126.288 7.90113 125.641 7.42364 124.909 7.03296C124.004 6.59888 123.012 6.38184 121.935 6.38184C120.297 6.38184 118.962 6.77251 117.97 7.51045C116.979 8.2484 116.462 9.24679 116.462 10.4622C116.462 11.504 116.807 12.3722 117.539 13.1101C117.626 13.1969 117.712 13.2838 117.798 13.3272C117.841 13.3706 117.884 13.3706 117.927 13.414C117.97 13.4574 118.057 13.5008 118.1 13.5442C118.143 13.5876 118.186 13.631 118.272 13.6744C118.315 13.7178 118.401 13.7613 118.444 13.8047C118.487 13.8481 118.574 13.8915 118.617 13.9349C118.66 13.9783 118.746 14.0217 118.789 14.0217C118.875 14.0651 118.918 14.1085 119.005 14.1519C119.048 14.1953 119.134 14.1953 119.177 14.2387C119.263 14.2822 119.349 14.3256 119.436 14.369C119.479 14.4124 119.565 14.4124 119.608 14.4558C119.694 14.4992 119.78 14.5426 119.91 14.586C119.953 14.6294 120.039 14.6294 120.082 14.6728C120.168 14.7162 120.297 14.7596 120.384 14.8031C120.427 14.8031 120.427 14.8465 120.47 14.8465C120.556 14.8899 120.685 14.9333 120.772 14.9767C120.944 15.0635 121.116 15.1069 121.289 15.1937C122.323 15.5844 122.969 15.9317 123.314 16.1487C123.616 16.4092 123.788 16.713 123.788 17.1471C123.788 17.668 123.573 18.1021 123.142 18.4494C122.711 18.7966 122.151 18.9703 121.504 18.9703C120.944 18.9703 120.384 18.84 119.823 18.5362C119.263 18.2323 118.832 17.8416 118.487 17.3642L116.419 19.4478C116.807 20.0989 117.41 20.6198 118.229 21.0539C119.22 21.5748 120.341 21.8352 121.59 21.8352C122.754 21.8352 123.831 21.6182 124.693 21.2275C125.598 20.8368 126.288 20.2725 126.805 19.5346C127.322 18.7966 127.537 17.9719 127.537 17.0169C127.58 16.3223 127.451 15.7146 127.193 15.2371Z" fill="#05AA76"/>
</svg>
