<svg width="97" height="32" viewBox="0 0 97 32" fill="none" xmlns="http://www.w3.org/2000/svg">
<path d="M3.43883 13.2079C6.16688 8.02132 10.919 2.33868 16.5511 0.44446C17.6951 0.128757 19.2351 -0.186945 20.2472 0.624861C21.1712 1.30137 21.2592 2.47398 21.0832 3.55639C20.8192 4.8192 19.9832 6.39771 18.5751 6.62321C18.3111 6.62321 18.0911 6.53301 17.9591 6.35261C17.6071 5.99181 17.6071 5.4506 17.6951 4.9996C17.9151 4.00739 18.8391 2.92498 19.8511 2.78968C20.0272 2.60928 19.9392 2.38378 19.8952 2.24847C19.7631 2.02297 19.5871 1.84257 19.3231 1.79747C18.1791 1.66217 17.3431 2.38378 16.5071 2.97008C13.251 5.6761 10.875 9.10373 8.85093 12.5765C7.2229 15.6884 5.81487 18.8905 5.41887 22.4985C5.19886 25.1144 6.03488 27.6851 8.32292 28.9479C10.787 30.3009 13.999 29.3989 16.4631 28.6773L18.7511 27.9557L23.1072 26.6027C27.2433 25.3399 32.4354 25.0693 36.4835 26.738C38.9475 27.7753 41.4556 29.2185 43.0396 31.699C43.0396 31.7441 43.0396 31.8343 42.9516 31.8343C39.4755 30.8421 34.9434 29.895 31.5114 31.6088L31.3354 31.5637C30.2794 29.8499 28.5193 28.9028 26.7153 28.542C20.8632 27.9557 16.0671 30.797 10.611 31.5186C7.83891 31.7892 4.84685 31.699 2.91082 29.4891C-0.169244 26.3772 0.226764 20.8298 1.67879 17.0414C2.2068 15.7786 2.82281 14.4707 3.43883 13.2079Z" fill="#0A2533"/>
<path d="M11.4908 15.0569C12.9428 12.3508 15.1869 9.01341 18.2669 8.0212C19.1029 7.8408 19.983 7.931 20.599 8.47221C21.919 9.82522 21.391 12.1253 20.951 13.7489C20.951 13.8391 21.039 13.9294 21.127 13.9745C22.315 13.9294 23.239 13.3881 24.119 12.5312C25.9231 10.4566 27.9031 7.7055 30.8512 8.0212C31.4232 8.1114 31.9512 8.42711 32.2592 8.96831C33.0072 10.5017 32.2592 12.1704 31.2472 13.3881C30.8512 13.794 30.3672 14.0647 29.7952 13.8842C29.5751 13.794 29.3991 13.5685 29.3111 13.343C29.0911 12.2606 29.7072 11.2684 30.5432 10.7272C30.7632 10.5017 31.5112 10.637 31.3352 10.0958C31.2032 9.87032 30.9392 9.87032 30.7192 9.82522C29.2671 10.4566 28.3431 11.9449 27.5071 13.2077C26.4511 14.9216 25.6151 16.6805 25.0431 18.6198C24.9111 19.2963 24.6911 20.1983 25.0871 20.8297C25.3951 21.2356 25.8351 21.416 26.3631 21.2807C27.7711 20.6944 29.0471 19.5218 30.1472 18.3041C32.6552 15.2373 33.9752 11.4488 37.3193 8.92321C38.3753 8.2016 39.8273 7.6153 41.0594 8.29181C41.2794 8.38201 41.4114 8.65261 41.6754 8.56241C41.8954 8.33691 42.0274 7.931 42.4234 8.0212C43.3474 8.0212 44.4034 7.9761 45.3715 8.0663L45.4155 8.1565L45.1515 8.83301L39.9594 19.6571C39.8273 19.7022 39.7833 19.8375 39.8273 19.9728C39.9153 20.1081 40.0914 20.1081 40.2234 20.063C40.9714 19.612 41.5434 18.8002 42.0714 18.1237C42.5114 17.4923 42.9514 16.8158 43.2594 16.0942C43.3914 15.8687 43.5674 15.6432 43.8314 15.6883C44.1394 15.7334 44.4914 15.5981 44.7114 15.8236C44.3594 16.7256 43.8754 17.5374 43.3914 18.3943C41.9834 20.6042 40.1354 23.22 37.5393 23.8514C37.0993 23.8965 36.5713 23.9416 36.2633 23.6259C35.7793 23.22 35.7353 22.6337 35.6033 22.0474C35.5593 22.0023 35.4713 21.9572 35.3833 22.0023C34.2832 23.0396 33.1392 24.0318 31.5992 23.8514C31.1152 23.7612 30.6752 23.3553 30.4552 22.9043C30.0592 22.0925 30.2352 21.1003 30.2352 20.1983C30.1912 20.1081 30.0592 20.1532 30.0152 20.1532C28.3431 21.867 26.4951 23.4004 24.251 23.8063C23.195 23.9416 22.315 23.6259 21.611 22.8592C19.939 20.6042 21.259 17.6727 22.139 15.4628C22.183 15.3726 22.183 15.2373 22.051 15.1922C21.435 15.2373 20.863 15.3275 20.291 15.4177L20.071 15.6432C18.7069 18.2139 17.2549 20.965 14.7909 22.9043C13.7788 23.671 12.2828 24.1671 11.0948 23.4906C9.86276 22.6337 9.73076 21.0552 9.90676 19.612C10.2588 18.0335 10.8308 16.5452 11.4908 15.0569ZM15.3629 14.9216C14.6589 16.4099 13.9108 17.8982 13.9108 19.612C13.9988 19.9277 14.1748 20.3336 14.5269 20.4238C14.9229 20.514 15.2309 20.3336 15.4949 20.1081C16.9029 18.8904 17.8709 17.2668 18.6629 15.6883C18.7069 15.553 18.8389 15.3275 18.7509 15.1922C17.9149 14.8314 17.1229 14.2451 16.4629 13.5234H16.3309C16.1989 13.5685 16.1549 13.6587 16.0669 13.7489L15.3629 14.9216ZM17.5629 11.9449C17.6069 12.7116 18.3109 13.3881 18.9709 13.6587C19.1469 13.7038 19.4109 13.8391 19.543 13.6136C19.807 13.1175 19.939 12.5763 20.071 12.0351C20.203 11.3135 20.291 10.3664 19.631 9.91542C19.4109 9.78012 19.0589 9.78012 18.8389 9.87032C18.0909 10.2762 17.5189 11.0429 17.5629 11.9449ZM34.6352 17.9884C34.4592 18.6198 34.1512 19.3414 34.3712 20.063C34.4152 20.1983 34.5912 20.2885 34.7232 20.3336C35.2953 20.3336 35.6913 19.8375 36.0433 19.3865C37.7153 17.0413 38.9913 14.4706 40.1354 11.8998C40.3114 11.3586 40.6194 10.8625 40.6194 10.2311C40.6194 10.0958 40.4874 10.0056 40.3994 9.96052C40.1354 9.82522 39.9153 10.0056 39.6953 10.1409C37.4513 11.8998 36.2633 14.4255 35.1193 16.8609L34.6352 17.9884Z" fill="#0A2533"/>
<path d="M45.4596 11.3137C45.9436 10.3215 46.3836 9.23913 46.9996 8.29202C47.2636 8.02142 47.6596 8.02142 47.9676 7.97632L50.4757 8.02142L50.5637 8.11162C50.1237 9.14893 49.6837 10.1411 49.1557 11.1333C49.0237 11.4039 48.7596 11.6294 48.4516 11.6745C47.4396 11.6745 46.3836 11.7647 45.4156 11.6745C45.3276 11.5843 45.4156 11.449 45.4596 11.3137Z" fill="#0A2533"/>
<path d="M47.9674 16.5002C49.6834 12.8471 51.7955 9.28415 54.7435 6.17222C57.6036 3.2407 60.7276 0.850381 64.4677 0.128775C65.4797 -0.00652634 66.6237 0.0836744 67.4158 0.80528C67.5478 0.940581 67.7238 1.07588 67.9438 0.985682C70.6278 -0.0967271 74.3679 -0.50263 77.096 0.895481C78.68 1.66219 80.132 2.6995 81.628 3.6466C81.804 3.7368 81.716 3.96231 81.628 4.05251C80.748 5.04471 80.044 6.03692 79.252 7.07423C79.164 7.16443 79.032 7.11933 78.944 7.07423L74.9839 4.27801C73.1359 2.9701 70.9798 2.06809 68.6038 2.47399C68.3398 2.6093 68.4718 2.9701 68.4278 3.1956C68.4718 5.72122 67.5918 7.93114 66.4037 9.96066C65.4357 11.3588 64.3357 12.8471 62.7077 13.2981C62.0037 13.4334 61.2996 13.2079 60.9036 12.6667C59.7156 10.8176 60.7716 8.56254 61.6517 6.93893C62.6637 5.13492 64.1597 3.4662 65.8317 2.20339C65.8757 2.15829 65.9637 2.06809 65.8757 1.97789C65.6997 1.79749 65.4357 1.93279 65.2157 1.93279C62.5317 2.8348 60.3756 5.31532 58.3956 7.61544C54.8315 12.0804 52.1475 16.9512 50.6074 22.3182C50.1234 24.3026 49.5074 27.4145 51.4875 28.8126C53.2475 29.7597 54.9195 28.542 56.2395 27.3694C58.2636 25.2948 59.5836 22.8594 60.1556 20.1533C60.2436 19.3415 60.4636 18.214 59.7156 17.6728C59.0556 17.3571 58.5276 17.9434 58.0876 18.3944C57.0756 19.6572 56.6356 21.1906 56.4595 22.8143C56.0195 23.2202 55.4475 23.4457 54.9635 23.8065C54.0395 24.4379 53.1595 25.2948 52.4115 26.1968C52.3235 26.2419 52.3235 26.1066 52.2795 26.0615C52.1915 23.0398 53.2035 20.469 54.8315 18.1689C56.1075 16.6355 57.7796 15.3276 59.7596 15.8237C60.6396 16.0492 61.2116 16.9963 61.3876 17.8532C61.6957 20.6945 60.5516 23.13 59.3196 25.4301C57.2956 28.6773 54.1275 31.9245 50.1234 31.5186C48.5834 31.4284 47.1314 30.346 46.5154 28.8577C45.0193 25.7458 46.0313 21.777 47.0874 18.7552L47.9674 16.5002ZM61.6076 11.1784C61.6517 11.5392 61.7837 11.9 62.1357 12.0353C62.7957 12.2157 63.3677 11.7196 63.8517 11.3137C65.6557 9.32925 66.7997 7.02913 67.0638 4.41331C67.0638 4.00741 67.1958 3.5113 66.9758 3.1956C66.8438 3.1505 66.6677 3.2407 66.5357 3.3309C65.3037 4.18781 64.1597 5.40552 63.3237 6.62323C62.4437 8.02134 61.6517 9.41945 61.6076 11.1784Z" fill="#0A2533"/>
<path d="M64.1604 19.9279C65.6124 17.9435 67.5485 15.7786 70.0125 15.6433C70.6285 15.6433 71.1566 15.9139 71.5526 16.4551C72.6086 18.0337 71.7286 20.0632 71.3326 21.6868C71.2886 21.8221 71.3766 21.9123 71.5086 21.9574C71.9926 22.0476 72.6086 21.9574 73.0486 21.7319L73.2246 21.5064C74.9846 16.3649 77.6247 11.5843 80.7047 7.02917C82.6408 4.41335 85.1488 1.66222 88.0089 0.399413C88.7129 0.173911 89.6809 -0.141792 90.3409 0.399413C91.0889 1.03082 90.8689 2.06813 90.6929 2.87993C90.6049 3.60154 89.8129 3.69174 89.3289 3.82704C89.2849 3.82704 89.2849 3.82704 89.2409 3.78194C89.2409 3.33094 89.5049 2.92503 89.5929 2.42893C89.6369 2.20343 89.6369 1.97793 89.5489 1.75242C89.4169 1.52692 89.1529 1.61712 88.9769 1.66222C88.0089 2.15833 87.2169 3.06033 86.4688 3.91724C83.6968 7.25467 81.6728 10.9078 79.7807 14.6511C79.1647 15.959 78.5487 17.2218 78.0207 18.5749C78.0207 18.6651 78.0207 18.7102 78.1087 18.7553C78.5487 18.7553 78.8127 18.3043 79.1207 18.0788C81.5848 15.7786 83.5648 13.1628 85.4128 10.5019C85.8088 10.3215 86.2488 10.3215 86.7329 10.2764L86.8209 10.3215C86.7769 10.6823 86.4688 10.9529 86.3368 11.2686C84.2688 14.2903 81.9368 17.2218 79.1207 19.8377L77.0527 21.5515C76.6127 21.9574 76.6127 22.5437 76.3927 23.0398C75.9966 24.3928 75.6006 25.7458 75.5566 27.189C75.5566 27.4145 75.6446 27.6851 75.8646 27.8204C76.3927 28.0459 76.8327 27.5498 77.2287 27.189C80.0007 23.8967 81.2327 19.8828 84.6208 16.9061C85.7208 16.0041 87.2169 15.2374 88.6249 15.9139C88.8889 16.0041 89.0649 16.3649 89.3729 16.1845C89.5929 16.0492 89.5929 15.6884 89.9009 15.6884C90.9129 15.6884 91.969 15.6433 92.937 15.7335C93.025 15.8237 92.981 15.959 92.937 16.0492L92.233 17.4925L87.9649 26.287C87.7889 26.6929 87.5249 27.0988 87.5249 27.5498C87.5689 27.7302 87.7889 27.7753 87.9649 27.7302C88.7569 27.2792 89.3289 26.5125 89.8569 25.7909C90.3849 25.0242 90.7809 24.2575 91.3089 23.4908C91.5729 23.3555 91.925 23.4006 92.233 23.4457C92.409 23.6261 92.189 23.8516 92.145 24.032C90.9129 26.6929 89.1529 29.5794 86.4248 31.0226C85.8088 31.3383 84.9288 31.654 84.2248 31.2481C83.6528 30.8422 83.7408 30.1657 83.4768 29.5793C83.4328 29.4891 83.3008 29.5343 83.2568 29.5343C82.1128 30.5716 80.9247 31.7442 79.3407 31.2932C78.3727 30.8422 78.2407 29.6695 78.1527 28.6773C78.1087 28.6322 78.1087 28.542 78.0647 28.542L77.9327 28.5871C76.8327 29.9402 75.4246 31.654 73.5766 31.4736C72.8726 31.4285 72.2566 30.7069 72.0366 30.0755C71.3766 27.9557 72.0806 25.6556 72.5206 23.6261C72.5206 23.4908 72.3886 23.4006 72.3006 23.4006H70.7605L70.4965 23.7163C69.3525 26.0164 68.0765 28.2263 66.0965 30.1657C65.0404 31.1128 63.7644 31.8795 62.3564 31.4736C61.1684 30.9324 60.8604 29.6245 60.8604 28.4067C61.1244 25.1144 62.4884 22.4535 64.1604 19.9279ZM64.5564 26.9635C64.6004 27.4145 64.7764 27.8655 65.2164 28.0008C65.5244 28.091 65.8324 27.9557 66.0965 27.8655C67.5485 26.738 68.4285 25.0693 69.2205 23.4908C69.3085 23.3555 69.3525 23.0849 69.1765 22.9947C68.4285 22.5888 67.6805 22.0025 67.0645 21.326C66.9765 21.2358 66.8445 21.2358 66.7565 21.2809C66.2285 22.0476 65.8324 22.8594 65.4804 23.6712C65.0404 24.7085 64.5564 25.7458 64.5564 26.9635ZM68.2525 19.7024C68.2965 20.5142 68.9125 21.2358 69.6165 21.5064C69.7485 21.5515 70.0125 21.6417 70.1005 21.4613C70.5405 20.4691 70.9365 19.2965 70.7165 18.1239C70.6285 17.8533 70.4085 17.5827 70.1445 17.4925C69.8805 17.4023 69.5725 17.4925 69.3525 17.6278C68.6045 18.0788 68.2525 18.8906 68.2525 19.7024ZM82.1568 26.6027C82.1128 26.9635 82.0248 27.4596 82.3328 27.7302C82.4648 27.8655 82.7288 27.9106 82.9048 27.8204C83.6528 27.4145 84.1368 26.6027 84.5768 25.9262C86.1168 23.4908 87.2169 20.9201 88.2729 18.2592C88.3169 18.0337 88.3609 17.718 88.1409 17.5376C87.5249 17.2218 87.0409 17.9435 86.6009 18.2592C84.5768 20.2887 83.5208 22.8143 82.5088 25.2948L82.1568 26.6027Z" fill="#0A2533"/>
<path d="M85.1042 7.2998L86.4682 5.49578L86.6882 5.31538C90.5603 5.22518 93.6404 2.87996 96.3684 0.0837402C96.3684 0.444543 96.1924 0.805346 96.0604 1.16615C94.2564 5.49578 89.9003 9.28421 85.1922 9.37441H84.0922C83.8722 9.32931 84.0482 9.10381 84.0922 9.01361L85.1042 7.2998Z" fill="#0A2533"/>
<path d="M89.9881 30.1654C89.9881 29.6242 90.3841 29.2183 90.9121 29.2183C91.3961 29.2183 91.8361 29.6242 91.8361 30.1654C91.8361 30.7066 91.4401 31.1125 90.9121 31.1125C90.4281 31.1125 89.9881 30.7066 89.9881 30.1654ZM90.9121 31.338C91.5281 31.338 92.0561 30.8419 92.0561 30.2105C92.0561 29.534 91.5281 29.083 90.9121 29.083C90.2961 29.083 89.7681 29.5791 89.7681 30.2105C89.7681 30.8419 90.2961 31.338 90.9121 31.338ZM90.6921 30.2556H90.9121L91.2641 30.8419H91.4841L91.1321 30.2556C91.3081 30.2105 91.4841 30.1203 91.4841 29.8948C91.4841 29.6242 91.3521 29.534 91.0441 29.534H90.5601V30.8419H90.7361V30.2556H90.6921ZM90.6921 30.0752V29.6693H90.9561C91.0881 29.6693 91.2201 29.7144 91.2201 29.8497C91.2201 30.0301 91.0881 30.0752 90.9121 30.0752H90.6921Z" fill="#0A2533"/>
</svg>
