<svg width="63" height="33" viewBox="0 0 63 33" fill="none" xmlns="http://www.w3.org/2000/svg">
<path d="M13.9292 32.9467C13.667 32.9467 13.3612 32.7508 13.3175 32.5549C13.2519 32.3372 13.0553 31.3795 13.0116 31.1836C13.0116 31.14 12.9024 31.1183 12.815 31.0965C12.6621 31.053 12.4436 30.9877 12.3125 30.7918C12.2033 30.6176 12.1596 30.4217 12.1377 30.2258C12.1159 30.0517 12.094 29.8776 11.9848 29.7252C11.8537 29.4858 11.2202 28.811 10.7177 28.2451C10.4774 27.9839 10.2808 27.7662 10.1497 27.6138L10.0842 27.5485C9.66908 27.0479 8.77336 26.0249 8.24905 24.9583C7.85581 24.1747 7.33149 23.7393 7.06933 23.5652C7.06933 24.0658 7.04748 25.3719 7.13487 25.7854C7.20041 26.1337 7.15671 26.5255 7.13487 26.8955C7.11302 27.1132 7.09117 27.3091 7.09117 27.4832C7.09117 27.6356 7.09117 28.0274 6.74163 28.0274C6.65424 28.0274 6.52316 28.0056 6.39208 27.9621C6.15177 27.8968 5.88961 27.7227 5.58376 27.5485C5.40898 27.4397 5.23421 27.3309 5.03759 27.222C4.46958 26.9173 4.12003 26.6561 4.09819 26.6343H4.07634V26.6126C3.81418 26.2425 3.7268 25.9378 3.83603 25.6984C4.03265 25.3066 4.64435 25.2848 4.6662 25.2848H4.68805L5.2779 25.5025V25.0671L5.71484 25.0018C5.75853 24.893 5.86776 24.6318 5.84592 24.3706C5.80222 24.0223 5.3216 20.692 5.12498 19.5819C5.08129 19.3207 5.12498 19.0813 5.25606 18.9071C5.43083 18.6895 5.67114 18.6024 5.84592 18.5806C5.73668 18.3194 5.45268 17.7317 5.29975 17.4488C5.19052 17.2529 5.14683 16.8828 5.08129 16.4257C5.01575 15.9469 4.95021 15.3809 4.79728 14.9673C4.60066 14.4449 4.3385 14.3361 4.12003 14.3361C3.98895 14.3361 3.90157 14.3796 3.87972 14.4014C3.83603 14.4232 3.77049 14.4667 3.6831 14.5102C3.3554 14.6844 2.7437 14.9891 2.11015 15.4027C1.95722 15.5115 1.80429 15.5551 1.67321 15.5551C1.14889 15.5551 0.974121 14.7932 0.974121 14.1402C0.974121 13.6178 1.12705 12.5077 1.30182 12.0941C1.38921 11.8982 1.38921 11.6806 1.38921 11.4629C1.38921 11.2888 1.38921 11.1146 1.45475 10.984C1.45475 10.8317 1.58583 10.7664 1.80429 10.7664C2.11015 10.7664 2.52523 10.8752 2.54708 10.897L2.59077 10.9187L2.61262 10.9623C2.67816 11.0711 2.94032 11.6806 2.7 11.9418C2.54708 12.1159 2.28492 12.1377 2.11015 12.1377C2.0883 12.1377 2.0883 12.1377 2.06645 12.1377L2.11015 13.6613C2.39415 13.5743 2.83108 13.4001 2.96216 13.3131L3.04955 13.2478C3.28986 13.0736 3.74864 12.7471 3.90157 12.3553C4.07634 11.9418 4.46958 11.8765 4.79728 11.8329C4.90651 11.8112 4.9939 11.7894 5.08129 11.7676C5.14683 11.7459 5.23421 11.7241 5.36529 11.7241C5.6056 11.7241 5.91146 11.7676 6.15177 11.8112C6.04254 11.7023 5.9333 11.5717 5.86776 11.4847C5.73668 11.2888 5.69299 10.984 5.67114 10.7011C5.67114 10.6358 5.6493 10.5487 5.6493 10.4834C5.6493 10.4616 5.47452 9.22093 5.54006 8.76383C5.6056 8.32849 6.17362 8.04552 7.11302 7.98022C7.13487 7.98022 7.15671 7.98022 7.20041 7.98022C8.09612 7.98022 8.46751 8.95973 8.46751 9.3733V9.52566C8.46751 9.961 8.48936 10.7228 8.24905 11.0276C8.09612 11.2235 8.20535 11.4847 8.27089 11.5935C8.44566 11.6153 9.03552 11.6588 9.29768 11.7023C9.31953 11.7023 9.34138 11.7023 9.38507 11.7023C9.45061 11.7023 9.55984 11.6806 9.66908 11.6806C9.90939 11.6588 10.2589 11.6153 10.7833 11.6153C11.2202 11.6153 11.7227 11.637 12.247 11.7023C14.0821 11.8982 14.2787 12.8342 14.3879 13.3566C14.4098 13.4437 14.4316 13.509 14.4316 13.5743C14.5627 13.9661 15.1526 14.9673 15.4147 15.3809L15.4584 15.4462C15.6114 15.7292 15.7643 15.7945 15.9391 15.9033C16.0046 15.9469 16.092 15.9904 16.2012 16.0557C16.5508 16.2951 16.3541 16.7522 16.2231 17.0352C16.2012 17.0787 16.2012 17.1005 16.1794 17.1223C16.0701 17.3835 15.808 17.4488 15.6114 17.4705C15.5677 17.4705 15.524 17.4923 15.4803 17.4923C15.4584 17.4923 15.4366 17.4923 15.4147 17.4923C15.3492 17.4923 15.2837 17.4705 15.24 17.4052C15.1307 17.2746 15.1526 16.9699 15.1963 16.8175C15.2181 16.7305 15.1963 16.6652 15.1526 16.6216C15.1307 16.5999 15.1089 16.5781 15.0652 16.5781C15.0433 16.5781 15.0215 16.5781 14.9997 16.5999C14.7812 16.774 14.6064 16.7958 14.5846 16.7958H14.4535L14.4753 16.6652C14.4753 16.6434 14.5409 16.121 14.5627 15.8598C14.5846 15.751 14.3879 15.4898 14.2569 15.3156C14.1476 15.1632 14.0602 15.0326 13.9947 14.9238C13.9292 14.7714 13.5796 14.3143 13.2956 13.9225C13.0771 13.6613 12.8805 13.4001 12.7931 13.2478C12.7058 13.1172 12.5747 13.0519 12.3781 13.0519C12.2251 13.0519 12.0722 13.0954 11.963 13.1172L11.8756 13.1389C11.6353 13.1825 11.0454 13.4872 10.8269 13.879C10.7614 13.9878 10.6959 14.0967 10.6085 14.2055C10.3463 14.5755 10.0405 15.0544 9.97493 15.6639C9.88754 16.3604 9.80016 17.3399 9.97493 17.7753C10.106 18.1018 10.2808 18.3194 10.4556 18.5589C10.4992 18.6242 10.5648 18.6895 10.6085 18.7548C10.8051 19.016 10.8925 19.669 10.958 20.3873C10.9799 20.5179 10.9799 20.6267 11.0017 20.7138C11.0454 21.0185 10.6085 21.3668 10.2152 21.6715C10.0623 21.7803 9.88754 21.9327 9.86569 21.9762C9.77831 22.1504 9.77831 22.9122 9.822 23.1734C9.86569 23.4128 10.4337 24.6971 10.674 25.1977C10.958 25.7637 11.3076 26.2643 11.679 26.5908C12.0067 26.8738 12.2251 27.4397 12.3781 27.8533C12.4436 28.0056 12.4873 28.1362 12.531 28.2015C12.6621 28.4845 13.0335 28.6151 13.667 28.6151C13.9292 28.6151 14.1258 28.6804 14.2569 28.8328C14.3879 29.0069 14.3661 29.2028 14.3443 29.2246C14.3443 29.2246 14.235 30.2694 14.235 30.6829C14.235 30.8353 14.2569 31.053 14.2569 31.2924C14.2787 31.7277 14.3224 32.2284 14.2787 32.5549C14.2787 32.8161 14.1476 32.9467 13.9292 32.9467Z" fill="#0A2533"/>
<path fill-rule="evenodd" clip-rule="evenodd" d="M10.6523 30.0297H17.1408L17.8836 27.6789H14.1915L14.8687 25.4804H18.2113L18.9104 23.2167H15.5897L16.1795 21.323H19.7405L20.4615 18.9722H14.126L10.6523 30.0297Z" fill="#0A2533"/>
<path fill-rule="evenodd" clip-rule="evenodd" d="M17.752 30.0297H20.3735L22.5145 23.1949H22.5364L22.2742 30.0297H25.3327L28.7845 18.9722H26.1629L24.0438 25.7852H24.0219L24.3496 18.9722H21.2256L17.752 30.0297Z" fill="#0A2533"/>
<path fill-rule="evenodd" clip-rule="evenodd" d="M26.2515 30.0297H32.7181L33.4608 27.6789H29.7688L30.4679 25.4804H33.7885L34.4876 23.2167H31.167L31.7568 21.323H35.3178L36.0387 18.9722H29.7032L26.2515 30.0297Z" fill="#0A2533"/>
<path fill-rule="evenodd" clip-rule="evenodd" d="M33.3506 30.0298H36.147L37.5233 25.6112H38.2661C38.9433 25.6112 39.0744 25.9377 38.6812 27.2002L38.4408 27.9402C38.2879 28.3973 37.9602 29.4639 38.0476 30.0516H41.0187L41.0624 29.8992C40.9095 29.8122 40.8877 29.6816 40.844 29.551C40.7784 29.3333 41.0187 28.5932 41.1935 28.0273L41.4994 27.0913C41.9582 25.6112 41.8271 24.7405 40.5163 24.6099V24.5882C41.8489 24.3923 42.7009 23.4345 43.1597 21.9544C43.684 20.2566 43.2689 19.0159 41.128 19.0159H36.7587L33.3506 30.0298ZM38.9433 21.0402H39.4895C40.3197 21.0402 40.56 21.432 40.276 22.3244C40.0357 23.108 39.4895 23.6304 38.703 23.6304H38.1568L38.9433 21.0402Z" fill="#0A2533"/>
<path d="M46.4151 25.9812H47.3982C46.7865 27.9184 46.3058 28.3102 45.716 28.3102C44.864 28.3102 45.0169 27.5048 45.9563 24.5228C46.8957 21.5407 47.2234 20.7354 48.1409 20.7354C48.4686 20.7354 48.6216 20.9095 48.6434 21.2142C48.6653 21.519 48.556 21.9325 48.3813 22.4985H51.0902C51.9204 19.8212 50.8499 18.7764 48.8619 18.7764C45.563 18.7764 44.2304 20.8224 43.0725 24.5228C41.9365 28.1796 41.5214 30.2692 44.3615 30.2692C45.3009 30.2692 46.3714 30.0298 47.0486 29.072H47.0705L46.8301 30.0515H48.7308L50.6096 24.0439H47.0268L46.4151 25.9812Z" fill="#0A2533"/>
<path fill-rule="evenodd" clip-rule="evenodd" d="M51.3306 30.0297H54.1269L55.4814 25.6763L60.3095 18.9722H57.251L55.0008 22.8249H54.979L55.1319 18.9722H52.0515L52.7069 25.6763L51.3306 30.0297Z" fill="#0A2533"/>
<path fill-rule="evenodd" clip-rule="evenodd" d="M19.0632 9.96076H22.9956C23.3015 8.93772 23.9132 8.50239 24.6341 8.50239C25.4206 8.50239 25.6609 9.17716 25.071 11.0926C24.0442 14.3794 23.5199 14.7712 22.6898 14.7712C21.947 14.7712 21.6411 14.3141 22.1436 12.7034L22.3184 12.1157H18.2549L18.0801 12.6598C17.1189 15.7507 18.1457 17.5574 21.9688 17.5574C26.076 17.5574 28.0859 15.3371 29.4841 10.8967C30.6201 7.26168 29.7025 5.47681 27.0372 5.47681C25.792 5.47681 24.6123 5.95568 23.5855 6.73928L24.6778 3.86607H30.9696L32.0183 0.470459H22.4058L19.0632 9.96076Z" fill="#0A2533"/>
<path fill-rule="evenodd" clip-rule="evenodd" d="M29.2866 13.9224H33.9618L34.7046 11.5498H30.0076L29.2866 13.9224Z" fill="#0A2533"/>
<path fill-rule="evenodd" clip-rule="evenodd" d="M33.3506 17.2092H36.0596L37.7855 11.6804C38.0039 10.9839 38.2661 10.6791 38.7467 10.6791C39.2273 10.6791 39.3147 10.9839 39.0963 11.6804L37.3704 17.2092H40.0794L42.0674 10.875C42.6136 9.11193 41.7615 8.58952 40.6692 8.58952C40.0138 8.58952 39.1618 8.85072 38.4409 9.74316H38.419L39.555 6.12988H36.846L33.3506 17.2092Z" fill="#0A2533"/>
<path fill-rule="evenodd" clip-rule="evenodd" d="M48.6003 13.03C49.3649 10.6139 49.6926 8.61133 46.5248 8.61133C43.4663 8.61133 42.374 10.8098 41.6967 13.0082C40.9321 15.4243 40.6044 17.4269 43.7722 17.4269C46.8307 17.4269 47.923 15.2284 48.6003 13.03ZM44.4057 13.03C45.0611 10.8968 45.367 10.418 45.9787 10.418C46.5904 10.418 46.5685 10.9186 45.9131 13.03C45.2577 15.1414 44.9737 15.642 44.3402 15.642C43.7285 15.642 43.7503 15.1414 44.4057 13.03Z" fill="#0A2533"/>
<path fill-rule="evenodd" clip-rule="evenodd" d="M48.2502 15.163C47.6822 16.9696 48.4687 17.4485 49.6484 17.4485C50.5878 17.4485 51.3961 17.0349 52.0078 16.2078H52.0297L51.702 17.2308H54.3236L56.9452 8.82886H54.2362L52.5103 14.3576C52.2918 15.0541 52.0297 15.3589 51.549 15.3589C51.0684 15.3589 50.981 15.0541 51.1995 14.3576L52.9254 8.82886H50.2164L48.2502 15.163Z" fill="#0A2533"/>
<path fill-rule="evenodd" clip-rule="evenodd" d="M54.8042 17.2092H57.5132L58.9332 12.6382C59.2828 11.5281 59.96 11.158 60.9213 11.158C61.1397 11.158 61.3582 11.1798 61.5767 11.2233L62.385 8.61133H61.948C61.1616 8.61133 60.2659 9.1555 59.6541 10.1568H59.6323L60.0474 8.829H57.4258L54.8042 17.2092Z" fill="#0A2533"/>
</svg>
