<svg width="61" height="28" viewBox="0 0 61 28" fill="none" xmlns="http://www.w3.org/2000/svg">
<g clip-path="url(#clip0)">
<path d="M56.1916 19.9535V0.973877H53.0534V19.9743C53.0534 24.4047 56.6086 27.9739 60.9741 27.9739V24.804C58.3346 24.804 56.1926 22.6409 56.1926 19.9535H56.1916ZM5.89423 19.9535C5.89423 22.6201 3.70071 24.804 0.974121 24.804V27.9739C5.46864 27.9739 9.08833 24.3839 9.08833 19.9754V0.974917H5.89531V19.9546L5.89423 19.9535ZM46.0913 0.974917V19.9754C46.0913 22.6409 43.8461 24.8248 41.0562 24.8248C38.2887 24.8248 36.0221 22.6617 36.0221 19.9754V0.974917H32.7313V19.9754C32.7313 24.4057 36.4574 27.9739 41.0347 27.9739C45.6334 27.9739 49.338 24.3839 49.338 19.9754V0.974917H46.0913ZM25.838 0.974917V19.9754C25.838 22.6409 23.6455 24.8248 20.9179 24.8248C18.2128 24.8248 15.9978 22.6617 15.9978 19.9754V0.974917H12.7822V19.9754C12.7822 24.4057 16.4244 27.9739 20.8964 27.9739C25.3909 27.9739 29.0117 24.3839 29.0117 19.9754V0.974917H25.838Z" fill="#0A2533"/>
</g>
<defs>
<clipPath id="clip0">
<rect width="60" height="27" fill="white" transform="translate(0.974121 0.973877)"/>
</clipPath>
</defs>
</svg>
